<svg xmlns="http://www.w3.org/2000/svg" width="20" height="20" viewBox="0 0 20 20" fill="currentColor">
  <path d="M16.4513 9.92004L11.1076 15.2638C10.9962 15.3752 10.8451 15.4378 10.6875 15.4378C10.5299 15.4378 10.3788 15.3752 10.2674 15.2638C10.156 15.1524 10.0934 15.0013 10.0934 14.8437C10.0934 14.6862 10.156 14.535 10.2674 14.4236L14.5981 10.0937H2.96875C2.81128 10.0937 2.66026 10.0312 2.54891 9.91981C2.43756 9.80846 2.375 9.65744 2.375 9.49996C2.375 9.34249 2.43756 9.19147 2.54891 9.08012C2.66026 8.96877 2.81128 8.90621 2.96875 8.90621H14.5981L10.2674 4.57629C10.156 4.46488 10.0934 4.31377 10.0934 4.15621C10.0934 3.99865 10.156 3.84755 10.2674 3.73614C10.3788 3.62472 10.5299 3.56213 10.6875 3.56213C10.8451 3.56213 10.9962 3.62472 11.1076 3.73614L16.4513 9.07989C16.5065 9.13503 16.5503 9.20051 16.5802 9.27259C16.6101 9.34467 16.6255 9.42194 16.6255 9.49996C16.6255 9.57799 16.6101 9.65525 16.5802 9.72733C16.5503 9.79941 16.5065 9.8649 16.4513 9.92004Z" fill="currentColor"/>
</svg>